<?xml version="1.0" encoding="utf-8"?>
<!-- Generator: Adobe Illustrator 17.0.0, SVG Export Plug-In . SVG Version: 6.00 Build 0)  -->
<!DOCTYPE svg PUBLIC "-//W3C//DTD SVG 1.1//EN" "http://www.w3.org/Graphics/SVG/1.1/DTD/svg11.dtd">
<svg version="1.1" id="图层_1" xmlns="http://www.w3.org/2000/svg" xmlns:xlink="http://www.w3.org/1999/xlink" x="0px" y="0px"
	 width="354.3px" height="354.3px" viewBox="0 0 354.3 354.3" enable-background="new 0 0 354.3 354.3" xml:space="preserve">
<g>
	<path fill="#4C4C4C" d="M116.7,87.6L116.7,87.6l21.3,37c2.6,4.3,8.1,5.9,12.5,3.3c4.3-2.5,5.7-8.1,3.2-12.4l-21.4-36.9
		c-2.4-4.3-8-5.8-12.3-3.3C115.7,77.8,114.3,83.4,116.7,87.6L116.7,87.6L116.7,87.6z"/>
	<path fill="#4C4C4C" d="M170.1,68.5L170.1,68.5c0-4.9,4.1-9.1,9-9.1c5,0,9.2,4.1,9.2,9.1v42.6c0,5-4.1,9.1-9.2,9.2
		c-4.9,0-9-4-9-9.2V68.5L170.1,68.5L170.1,68.5z"/>
	<path fill="#4C4C4C" d="M170.1,239.9L170.1,239.9c0-4.9,4.1-9.1,9-9.1c5,0,9.2,4.1,9.2,9.1v42.6c0,5-4.1,9.1-9.2,9.2
		c-4.9,0-9-4-9-9.2V239.9L170.1,239.9L170.1,239.9z"/>
	<path fill="#4C4C4C" d="M204.3,236.3L204.3,236.3c-2.5-4.2-1.2-9.9,3-12.5c4.3-2.6,9.9-1.3,12.6,3l22.1,36.4
		c2.6,4.3,1.2,9.9-3.1,12.6c-4.2,2.6-9.8,1.3-12.5-3.1L204.3,236.3L204.3,236.3L204.3,236.3z"/>
	<path fill="#4C4C4C" d="M231.3,217.3L231.3,217.3c-4.4-2.1-6.4-7.6-4.3-12.1c2.2-4.5,7.6-6.5,12.2-4.3l38.5,18.4
		c4.5,2.2,6.5,7.6,4.3,12.2c-2.1,4.4-7.5,6.4-12.2,4.2L231.3,217.3L231.3,217.3L231.3,217.3z"/>
	<path fill="#4C4C4C" d="M80,130.5L80,130.5c-4.4-2.2-6.3-7.8-4-12.2c2.3-4.5,7.8-6.3,12.3-4.1l38,19.2c4.5,2.3,6.3,7.8,4,12.3
		c-2.2,4.4-7.7,6.3-12.3,3.9L80,130.5L80,130.5L80,130.5z"/>
	<path fill="#4C4C4C" d="M225.9,78.6L225.9,78.6c2.6-4.4,8.1-5.8,12.4-3.4c4.4,2.5,5.9,8,3.3,12.4l-21.4,37
		c-2.4,4.3-8.1,5.9-12.4,3.4c-4.3-2.5-5.8-8.1-3.3-12.5L225.9,78.6L225.9,78.6L225.9,78.6z"/>
	<path fill="#4C4C4C" d="M269.3,115.2L269.3,115.2l-37.1,21.4c-4.3,2.4-5.8,8-3.4,12.4c2.6,4.3,8.2,5.7,12.4,3.3l37.1-21.4
		c4.2-2.5,5.8-8,3.2-12.3C279.1,114.1,273.5,112.6,269.3,115.2L269.3,115.2L269.3,115.2z"/>
	<path fill="#4C4C4C" d="M288.3,168.6L288.3,168.6c5.1,0,9.1,4.1,9,9.1c0,5-3.9,9-9,9h-42.7c-4.9,0-9-4.1-9-9.1c0-5,4.1-9,9-9H288.3
		L288.3,168.6L288.3,168.6z"/>
	<path fill="#4C4C4C" d="M112.8,168.6L112.8,168.6c5.1,0,9.1,4.1,9,9.1c0,5-3.9,9-9,9H70.1c-4.9,0-9-4.1-9-9.1c0-5,4.1-9,9-9H112.8
		L112.8,168.6L112.8,168.6z"/>
	<path fill="#4C4C4C" d="M117.4,200.1L117.4,200.1c4.3-2.7,9.9-1.4,12.5,2.9c2.7,4.2,1.5,9.8-2.8,12.5L91,238.2
		c-4.1,2.6-9.8,1.4-12.5-2.9c-2.7-4.2-1.3-9.9,2.8-12.5L117.4,200.1L117.4,200.1L117.4,200.1z"/>
	<path fill="#4C4C4C" d="M136.4,227.7L136.4,227.7c2.2-4.6,7.6-6.4,12.1-4.2c4.5,2.2,6.4,7.5,4.2,12.1L134.1,274
		c-2.1,4.4-7.6,6.3-12.1,4.1c-4.5-2.2-6.3-7.7-4.2-12.1L136.4,227.7L136.4,227.7L136.4,227.7z"/>
	<path fill="#4C4C4C" d="M288.3,168.6"/>
</g>
</svg>
