<?xml version="1.0" encoding="utf-8"?>
<?xml-stylesheet type="text/css" href="../icon.css" ?>
<!-- Generator: Adobe Illustrator 17.0.0, SVG Export Plug-In . SVG Version: 6.00 Build 0)  -->
<!DOCTYPE svg PUBLIC "-//W3C//DTD SVG 1.1//EN" "http://www.w3.org/Graphics/SVG/1.1/DTD/svg11.dtd">
<svg version="1.1" id="图层_1" xmlns="http://www.w3.org/2000/svg" xmlns:xlink="http://www.w3.org/1999/xlink" x="0px" y="0px"
	 width="354.3px" height="354.3px" viewBox="0 0 354.3 354.3" enable-background="new 0 0 354.3 354.3" xml:space="preserve" class="i-loadingSVG">
<g>
	<path fill="#4C4C4C" d="M177.7,73.2c-57.5,0-104.1,46.6-104.1,104.1c0,57.5,46.6,104.1,104.1,104.1c57.5,0,104.1-46.6,104.1-104.1
		C281.8,119.8,235.2,73.2,177.7,73.2L177.7,73.2z M220.4,206.1c1.8,1.8,2.9,4.2,2.9,6.9c0,5.4-4.4,9.8-9.8,9.8
		c-2.7,0-5.1-1.1-6.9-2.9L177.7,191l-28.9,28.9c-1.8,1.8-4.2,2.9-6.9,2.9c-5.4,0-9.7-4.4-9.7-9.8c0-2.7,1.1-5.1,2.9-6.9l28.9-28.9
		l-28.9-28.9c-1.8-1.8-2.9-4.2-2.9-6.9c0-5.4,4.4-9.8,9.8-9.8c2.7,0,5.1,1.1,6.9,2.9l28.9,28.9l28.9-28.9c1.8-1.8,4.2-2.9,6.9-2.9
		c5.4,0,9.8,4.4,9.8,9.8c0,2.7-1.1,5.1-2.9,6.9l-28.9,28.9L220.4,206.1L220.4,206.1z M220.4,206.1"/>
</g>
</svg>
