<?xml version="1.0" encoding="utf-8"?>
<!-- Generator: Adobe Illustrator 17.0.0, SVG Export Plug-In . SVG Version: 6.00 Build 0)  -->
<!DOCTYPE svg PUBLIC "-//W3C//DTD SVG 1.1//EN" "http://www.w3.org/Graphics/SVG/1.1/DTD/svg11.dtd">
<svg version="1.1" id="图层_1" xmlns="http://www.w3.org/2000/svg" xmlns:xlink="http://www.w3.org/1999/xlink" x="0px" y="0px"
	 width="354.3px" height="354.3px" viewBox="0 0 354.3 354.3" enable-background="new 0 0 354.3 354.3" xml:space="preserve">
<g>
	<path fill="#4C4C4C" d="M135.3,297h88v-24.4h-88V297L135.3,297L135.3,297z M296.3,73.8H62c-8.6,0-15.6,7-15.6,15.6v145.3
		c0,8.6,7,15.6,15.6,15.6h234.3c8.6,0,15.6-7,15.6-15.6V89.4C311.9,80.8,304.9,73.8,296.3,73.8L296.3,73.8L296.3,73.8z M202.6,234.7
		h-44.9v-15.6h44.9V234.7L202.6,234.7L202.6,234.7z M296.3,203.5H62V89.4h234.3V203.5L296.3,203.5L296.3,203.5z M296.3,203.5"/>
</g>
</svg>
